<svg width="46" height="50" viewBox="0 0 46 50" fill="none" xmlns="http://www.w3.org/2000/svg">
<path d="M28.4169 11.34C29.2405 11.34 29.8624 11.6866 30.327 12.1808C31.0768 12.9773 31.394 14.1499 31.861 15.1209C34.2554 20.1068 38.0355 24.2974 42.749 27.1914L43.8159 27.8232C44.782 28.4107 45.6228 29.0966 45.6252 30.4118C45.6277 32.2113 44.0617 32.8357 42.749 33.6396C38.0355 36.5336 34.2555 40.7242 31.861 45.71C31.394 46.6835 31.0744 47.8561 30.327 48.6526C29.8649 49.1467 29.2405 49.4934 28.4169 49.4934C27.5934 49.4934 26.969 49.1467 26.5068 48.6526C26.0741 48.1929 25.789 47.6152 25.5357 47.0252L25.167 46.1402C25.1054 45.9962 25.0406 45.8536 24.9728 45.7124C22.5784 40.7265 18.7984 36.536 14.0848 33.642L13.2957 33.1725C12.2312 32.5333 11.2061 31.8057 11.2086 30.4118C11.2135 28.6172 12.7745 27.9977 14.0848 27.1938C18.7984 24.2999 22.5784 20.1093 24.9728 15.1234C25.4399 14.1499 25.7595 12.9773 26.5068 12.1808C26.969 11.6891 27.5934 11.34 28.4169 11.34ZM10.5866 10.3198C10.9529 10.7697 11.1717 11.2786 11.4225 11.7973C12.096 13.1985 13.1138 14.4031 14.3749 15.293L14.8617 15.6126C16.966 16.9032 17.0447 19.0789 15.1567 20.4408L14.8617 20.6374C13.3716 21.552 12.1767 22.8767 11.42 24.4528L11.1397 25.0477C10.9013 25.5394 10.6235 26.0089 10.1417 26.3211C9.36729 26.8177 8.13321 26.8177 7.35883 26.3211C6.70737 25.9032 6.40008 25.1214 6.0805 24.4528C5.32368 22.8767 4.12881 21.5521 2.63883 20.6374C2.20125 20.367 1.78333 20.1138 1.42196 19.7352C1.06864 19.2717 0.877486 18.705 0.87793 18.1222C0.878375 17.5393 1.07039 16.9729 1.42442 16.5099C1.79317 16.1264 2.1865 15.8904 2.64129 15.6126C4.13044 14.6977 5.32447 13.3731 6.0805 11.7973C6.33617 11.2663 6.54021 10.7795 6.91633 10.3223C7.40778 9.84457 8.06612 9.57733 8.75148 9.57733C9.43684 9.57733 10.0952 9.84457 10.5866 10.3223V10.3198ZM18.5836 0.916687C19.2356 0.916687 19.8609 1.17569 20.3219 1.63672C20.7829 2.09774 21.0419 2.72303 21.0419 3.37502C21.6939 3.37502 22.3192 3.63402 22.7802 4.09505C23.2412 4.55608 23.5002 5.18136 23.5002 5.83335C23.5002 6.48535 23.2412 7.11063 22.7802 7.57166C22.3192 8.03269 21.6939 8.29169 21.0419 8.29169C21.0419 8.94368 20.7829 9.56897 20.3219 10.03C19.8609 10.491 19.2356 10.75 18.5836 10.75C17.9316 10.75 17.3063 10.491 16.8453 10.03C16.3843 9.56897 16.1252 8.94368 16.1252 8.29169C15.4733 8.29169 14.848 8.03269 14.3869 7.57166C13.9259 7.11063 13.6669 6.48535 13.6669 5.83335C13.6669 5.18136 13.9259 4.55608 14.3869 4.09505C14.848 3.63402 15.4733 3.37502 16.1252 3.37502C16.1252 2.72303 16.3843 2.09774 16.8453 1.63672C17.3063 1.17569 17.9316 0.916687 18.5836 0.916687Z" fill="#CA8A04"/>
</svg>
